<svg width="56" height="50" viewBox="0 0 56 50" version="1.1" xmlns="http://www.w3.org/2000/svg" xmlns:xlink="http://www.w3.org/1999/xlink">
<title>coins</title>
<desc>Created using Figma</desc>
<g id="Canvas" transform="translate(-4163 -232)">
<g id="coins">
<g id="Vector">
<use xlink:href="#path0_fill" transform="translate(4163 232)" fill="#00B0DC"/>
</g>
</g>
</g>
<defs>
<path id="path0_fill" d="M 55.5454 16.6667C 55.4537 15.0824 53.5694 13.8444 49.8009 12.9C 49.9278 12.6222 49.9991 12.3333 50 12.0333L 50 5.55556L 49.9843 5.55556C 49.6528 0.159259 27.5398 0 25 0C 22.4602 0 0.347222 0.159259 0.0157407 5.55556L 0 5.55556L 0 5.67593L 0 12.0361C 0.00462963 13.7954 2.275 15.1722 5.65278 16.1972C 5.60648 16.3509 5.5787 16.5074 5.56944 16.6667L 5.55556 16.6667L 5.55556 16.787L 5.55556 23.1361C 1.91667 24.0731 0.0990741 25.2935 0.00925926 26.8519L 0 26.8519L 0 26.9722L 0 33.3324C 0.00277778 34.5574 1.10741 35.5963 2.91481 36.462C 2.8463 36.65 2.8037 36.8417 2.79167 37.038L 2.77778 37.038L 2.77778 37.1583L 2.77778 43.5185C 2.78519 46.5981 9.71945 48.5102 17.4241 49.4028C 17.4806 49.4139 17.5324 49.437 17.5926 49.437C 17.6102 49.437 17.625 49.4278 17.6426 49.4269C 19.1278 49.5944 20.637 49.725 22.1306 49.8185C 22.162 49.8222 22.1898 49.837 22.2222 49.837C 22.2398 49.837 22.2537 49.8278 22.2704 49.8269C 24.1667 49.9417 26.0324 50 27.7778 50C 29.5231 50 31.3889 49.9417 33.2852 49.8259C 33.3019 49.8269 33.3167 49.8361 33.3333 49.8361C 33.3657 49.8361 33.3935 49.8204 33.425 49.8176C 34.9185 49.7241 36.4278 49.5944 37.913 49.4259C 37.9306 49.4259 37.9454 49.4352 37.963 49.4352C 38.0232 49.4352 38.075 49.412 38.1315 49.4009C 45.8361 48.5083 52.7694 46.5954 52.7778 43.5148L 52.7778 37.037L 52.763 37.037C 52.6982 35.9019 51.7306 34.9546 49.8194 34.163C 49.9361 33.8954 50 33.6176 50 33.3296L 50 27.2778C 53.3241 26.2556 55.5509 24.888 55.5556 23.1444L 55.5556 16.6667L 55.5454 16.6667ZM 48.0481 33.6306L 47.7324 33.9074C 47.2463 34.3361 46.4361 34.7685 45.3704 35.1852L 45.3704 30.7704C 46.4713 30.387 47.4083 29.962 48.1482 29.4963L 48.1482 33.3278C 48.1482 33.4231 48.113 33.525 48.0481 33.6306ZM 27.3389 37.9333C 27.2037 37.937 27.0676 37.9389 26.9315 37.9417C 26.6009 37.9481 26.262 37.95 25.9269 37.9528L 25.9269 33.3278C 26.1815 33.325 26.4361 33.3213 26.6907 33.3167C 26.7398 33.3157 26.7889 33.3148 26.838 33.3139C 27.7704 33.2963 28.7028 33.2676 29.6306 33.225L 29.6306 37.8481C 29.4324 37.8583 29.2333 37.8676 29.0324 37.8759C 28.475 37.9009 27.912 37.9194 27.3389 37.9333ZM 23.2954 37.9463C 22.8713 37.9389 22.4491 37.9287 22.0296 37.9157C 21.9778 37.9139 21.9259 37.912 21.8741 37.9102C 21.3694 37.8935 20.8685 37.8722 20.3713 37.8481L 20.3713 33.2259C 21.2991 33.2694 22.2315 33.2981 23.1639 33.3148C 23.213 33.3157 23.262 33.3167 23.3102 33.3176C 23.5648 33.3222 23.8194 33.3259 24.0741 33.3287L 24.0741 37.9565C 23.8944 37.9546 23.7148 37.9546 23.5361 37.9519C 23.4546 37.95 23.3759 37.9472 23.2954 37.9463ZM 6.5713 35.8352C 6.54074 35.8259 6.51204 35.8176 6.48148 35.8093L 6.48148 31.3361C 7.3463 31.5694 8.27593 31.7824 9.25926 31.9759L 9.25926 36.4954C 8.40926 36.3148 7.625 36.125 6.91111 35.9306C 6.79815 35.8981 6.68148 35.8676 6.5713 35.8352ZM 26.088 43.5028C 26.3426 43.5074 26.5972 43.5111 26.8519 43.5139L 26.8519 48.1426C 25.5722 48.1306 24.337 48.0935 23.1481 48.0352L 23.1481 43.412C 24.0759 43.4556 25.0083 43.4843 25.9407 43.5009C 25.9898 43.5009 26.0389 43.5019 26.088 43.5028ZM 29.6148 43.5C 30.5472 43.4824 31.4796 43.4537 32.4074 43.4111L 32.4074 48.0343C 31.2185 48.0926 29.9833 48.1296 28.7037 48.1417L 28.7037 43.513C 28.9583 43.5102 29.213 43.5065 29.4676 43.5019C 29.5167 43.5019 29.5657 43.5009 29.6148 43.5ZM 37.037 43.0815L 37.037 47.6796C 36.1472 47.7731 35.2213 47.8556 34.2593 47.9231L 34.2593 43.3056C 35.1982 43.2444 36.1259 43.1694 37.037 43.0815ZM 38.8889 42.8815C 39.8435 42.7667 40.7704 42.6361 41.6667 42.4907L 41.6667 47.037C 40.7944 47.1907 39.8676 47.3324 38.8889 47.4611L 38.8889 42.8815ZM 43.5185 42.1602C 44.5019 41.9667 45.4315 41.7537 46.2963 41.5204L 46.2963 45.9935C 45.4713 46.2315 44.5426 46.462 43.5185 46.6796L 43.5185 42.1602ZM 12.037 42.1602L 12.037 46.6796C 11.013 46.462 10.0843 46.2315 9.25926 45.9935L 9.25926 41.5204C 10.1241 41.7537 11.0537 41.9676 12.037 42.1602ZM 13.8889 42.4917C 14.7852 42.637 15.712 42.7676 16.6667 42.8824L 16.6667 47.462C 15.688 47.3333 14.7611 47.1917 13.8889 47.038L 13.8889 42.4917ZM 18.5185 43.0815C 19.4296 43.1694 20.3574 43.2444 21.2963 43.3065L 21.2963 47.9241C 20.3343 47.8565 19.4083 47.7741 18.5185 47.6806L 18.5185 43.0815ZM 16.2213 37.5444C 16.1269 37.5352 16.0333 37.525 15.9398 37.5157C 15.8731 37.5093 15.8074 37.5009 15.7407 37.4944L 15.7407 32.8972C 16.6519 32.9852 17.5796 33.0602 18.5185 33.1222L 18.5185 37.7361C 17.7407 37.6806 16.9722 37.6176 16.2213 37.5444ZM 13.8889 32.6963L 13.8889 37.2759C 12.9102 37.1472 11.9833 37.0056 11.1111 36.8519L 11.1111 32.3056C 12.0074 32.4509 12.9343 32.5824 13.8889 32.6963ZM 32.0981 37.6926C 31.8944 37.7083 31.6889 37.7241 31.4815 37.7389L 31.4815 33.1213C 32.4204 33.0593 33.3481 32.9852 34.2593 32.8963L 34.2593 37.4944C 33.687 37.5546 33.1019 37.6111 32.5009 37.6602C 32.3667 37.6722 32.2324 37.6824 32.0981 37.6926ZM 36.1111 37.2759L 36.1111 32.6963C 37.0657 32.5815 37.9926 32.4509 38.8889 32.3056L 38.8889 36.8519C 38.0167 37.0056 37.0898 37.1481 36.1111 37.2759ZM 40.7407 31.975C 41.7241 31.7815 42.6537 31.5685 43.5185 31.3352L 43.5185 35.8083C 42.6935 36.0463 41.7648 36.2769 40.7407 36.4944L 40.7407 31.975ZM 28.0787 27.7454C 27.3824 27.7278 26.7019 27.7009 26.0333 27.6685C 25.9972 27.6667 25.9611 27.6648 25.9259 27.6639L 25.9259 23.0407C 26.8537 23.0843 27.7861 23.113 28.7185 23.1296C 28.7676 23.1306 28.8167 23.1315 28.8648 23.1324C 29.1194 23.137 29.3741 23.1407 29.6287 23.1435L 29.6287 27.7667C 29.1778 27.762 28.7231 27.7602 28.2833 27.75C 28.2157 27.7481 28.1463 27.7472 28.0787 27.7454ZM 6.48148 14.513L 6.48148 10.0398C 7.3463 10.2731 8.27593 10.4861 9.25926 10.6796L 9.25926 15.1991C 9.14537 15.175 9.02778 15.1509 8.91667 15.1269C 8.42407 15.0185 7.94352 14.9056 7.48426 14.7861C 7.13426 14.6963 6.80185 14.6046 6.48148 14.513ZM 23.3102 12.0213C 23.5648 12.0259 23.8194 12.0296 24.0741 12.0324L 24.0741 16.6556C 22.8278 16.6435 21.5889 16.6111 20.3704 16.55L 20.3704 11.9306C 21.2981 11.9741 22.2306 12.0028 23.163 12.0194C 23.212 12.0194 23.2611 12.0204 23.3102 12.0213ZM 26.837 12.0185C 27.7694 12.0009 28.7019 11.9722 29.6296 11.9296L 29.6296 16.5491C 29.4722 16.5565 29.3213 16.5676 29.163 16.575C 29.15 16.5759 29.137 16.5759 29.1231 16.5769C 28.5019 16.6046 27.8685 16.625 27.2269 16.6398C 27.1269 16.6426 27.0269 16.6435 26.9269 16.6463C 26.5972 16.6528 26.2602 16.6537 25.9259 16.6574L 25.9259 12.0324C 26.1806 12.0296 26.4352 12.0259 26.6898 12.0213C 26.7389 12.0204 26.788 12.0194 26.837 12.0185ZM 47.9361 12.4833L 47.9102 12.4778L 47.5732 12.7398C 47.0843 13.1204 46.3333 13.5056 45.3704 13.8778L 45.3704 9.47315C 46.4713 9.08981 47.4083 8.66481 48.1482 8.19907L 48.1482 12.0306C 48.1482 12.1713 48.0741 12.3231 47.9361 12.4833ZM 36.1111 15.9741L 36.1111 11.4C 37.0657 11.2852 37.9926 11.1546 38.8889 11.0093L 38.8889 15.5481C 38.0111 15.7037 37.087 15.8463 36.1111 15.9741ZM 40.7407 15.1917L 40.7407 10.6796C 41.7241 10.4861 42.6537 10.2731 43.5185 10.0398L 43.5185 14.5028C 42.6889 14.7444 41.7546 14.975 40.7407 15.1917ZM 34.2593 11.6L 34.2593 16.1926C 33.3648 16.287 32.4389 16.3694 31.4815 16.438L 31.4815 11.825C 32.4204 11.763 33.3481 11.688 34.2593 11.6ZM 15.7407 16.1944L 15.7407 11.6C 16.6519 11.688 17.5796 11.763 18.5185 11.825L 18.5185 16.4343C 17.5759 16.3667 16.6463 16.2898 15.7407 16.1944ZM 13.8889 11.4L 13.8889 15.975C 13.7056 15.9509 13.5148 15.9315 13.3333 15.9065C 13.2148 15.8898 13.1019 15.8722 12.9852 15.8556C 12.45 15.7787 11.9269 15.6963 11.4139 15.6102C 11.3111 15.5926 11.212 15.5741 11.1111 15.5565L 11.1111 11.0102C 12.0074 11.1546 12.9343 11.2861 13.8889 11.4ZM 23.8444 27.5361C 23.7194 27.5268 23.5935 27.5176 23.4694 27.5083C 22.8769 27.462 22.2981 27.4111 21.7333 27.3546C 21.612 27.3426 21.4907 27.3296 21.3704 27.3176C 21.3454 27.3148 21.3213 27.3111 21.2963 27.3093L 21.2963 22.7111C 22.2074 22.7991 23.1352 22.8741 24.0741 22.9361L 24.0741 27.5509C 23.9991 27.5454 23.9194 27.5417 23.8444 27.5361ZM 17.7269 26.8444C 17.3602 26.7861 17.0157 26.7231 16.6667 26.662L 16.6667 22.1213C 17.563 22.2667 18.4898 22.3972 19.4444 22.512L 19.4444 27.0917C 18.8778 27.0167 18.3231 26.9389 17.7907 26.8556C 17.7694 26.8509 17.7481 26.8472 17.7269 26.8444ZM 14.8148 21.7898L 14.8148 26.3019C 13.7917 26.0824 12.8639 25.8491 12.037 25.6065L 12.037 21.15C 12.9019 21.3833 13.8315 21.5972 14.8148 21.7898ZM 10.1852 20.5843L 10.1852 24.9833C 8.72963 24.4213 7.79074 23.8472 7.48519 23.3361L 7.42315 23.2324C 7.41759 23.2037 7.40833 23.1731 7.40741 23.1444L 7.40741 19.3102C 8.14722 19.7759 9.08426 20.2009 10.1852 20.5843ZM 32.3926 23.1296C 33.325 23.112 34.2574 23.0833 35.1852 23.0407L 35.1852 27.6593C 33.9685 27.7194 32.7315 27.7528 31.4815 27.7657L 31.4815 23.1435C 31.7361 23.1407 31.9907 23.137 32.2454 23.1324C 32.2944 23.1315 32.3435 23.1306 32.3926 23.1296ZM 44.3583 26.6824C 43.9519 26.7528 43.5417 26.8222 43.1204 26.8861C 42.8787 26.9231 42.6315 26.9583 42.3833 26.9935C 42.1491 27.0269 41.9056 27.0556 41.6676 27.0861L 41.6676 22.5111C 42.6222 22.3963 43.5491 22.2657 44.4454 22.1204L 44.4454 26.6667C 44.4157 26.6722 44.387 26.6778 44.3583 26.6824ZM 38.0889 27.4731C 37.7435 27.5019 37.387 27.5204 37.037 27.5454L 37.037 22.9361C 37.9759 22.8741 38.9037 22.8 39.8148 22.7111L 39.8148 27.3046C 39.2769 27.3611 38.7398 27.4176 38.187 27.4639C 38.1537 27.4667 38.1222 27.4704 38.0889 27.4731ZM 48.6704 25.737C 48.2093 25.8657 47.7213 25.9861 47.2231 26.1037C 46.9926 26.1574 46.7574 26.2111 46.5167 26.263C 46.4454 26.2787 46.3694 26.2926 46.2972 26.3083L 46.2972 21.7907C 47.2806 21.5972 48.2102 21.3843 49.075 21.1509L 49.075 25.6241C 48.9417 25.6611 48.8074 25.6991 48.6704 25.737ZM 53.6935 16.7269C 53.6083 17.3556 52.1833 18.1917 49.6398 18.9778C 46.3639 19.9898 41.238 20.9167 34.7417 21.2037C 34.4093 21.2176 34.0778 21.2315 33.7389 21.2426C 33.462 21.2519 33.1843 21.2602 32.9019 21.2676C 32.1352 21.2843 31.3574 21.2963 30.5556 21.2963C 29.7537 21.2963 28.9759 21.2843 28.2093 21.2667C 27.9278 21.2602 27.65 21.2509 27.3722 21.2417C 27.0324 21.2315 26.7009 21.2167 26.3694 21.2028C 19.8731 20.9157 14.7463 19.9889 11.4713 18.9769C 8.94815 18.1972 7.52593 17.3676 7.42037 16.7417C 7.425 16.7241 7.425 16.7093 7.43611 16.687C 7.49907 16.7028 7.56945 16.7157 7.63333 16.7315C 7.99537 16.8176 8.36667 16.9009 8.74444 16.9806C 10.5843 17.3769 12.6231 17.7019 14.7954 17.95C 14.8028 17.95 14.8083 17.9537 14.8148 17.9537C 14.8167 17.9537 14.8185 17.9528 14.8194 17.9528C 16.2991 18.1213 17.8343 18.2537 19.4102 18.3472C 19.4222 18.3472 19.4324 18.3537 19.4444 18.3537C 19.4509 18.3537 19.4556 18.35 19.462 18.35C 20.5963 18.4167 21.7454 18.4657 22.9083 18.4917C 23.6204 18.5093 24.3194 18.5185 25 18.5185C 25.4861 18.5185 25.9843 18.513 26.487 18.5037C 33.2148 18.4 39.45 17.6 43.7889 16.3602C 43.9889 16.3037 44.1843 16.2454 44.3769 16.187C 44.4944 16.1509 44.6148 16.1157 44.7287 16.0796C 45.0639 15.9722 45.3852 15.862 45.6954 15.7472C 45.7491 15.7269 45.8 15.7065 45.8537 15.6861C 46.1157 15.587 46.3676 15.4843 46.6083 15.3796C 46.6778 15.3491 46.7491 15.3194 46.8167 15.2889C 47.0732 15.1731 47.3213 15.0546 47.5509 14.9315C 47.6546 14.8769 47.7444 14.8204 47.8417 14.7648C 47.9528 14.7009 48.0639 14.6361 48.1667 14.5704C 48.225 14.5333 48.2944 14.4981 48.35 14.4611C 52.4954 15.3602 53.588 16.3435 53.6935 16.7269ZM 25 1.85185C 40.2676 1.85185 47.9898 4.25556 48.1343 5.63519C 48.0222 6.26111 46.6009 7.08796 44.0843 7.86574C 40.8083 8.87778 35.6824 9.80463 29.1861 10.0917C 28.8537 10.1056 28.5222 10.1194 28.1833 10.1306C 27.9065 10.1398 27.6287 10.1481 27.3463 10.1556C 26.5796 10.1731 25.8019 10.1852 25 10.1852C 24.1981 10.1852 23.4204 10.1731 22.6537 10.1556C 22.3722 10.1491 22.0944 10.1398 21.8167 10.1306C 21.4769 10.1204 21.1454 10.1056 20.8139 10.0917C 14.3176 9.80463 9.19074 8.87778 5.91574 7.86574C 3.39815 7.08796 1.97778 6.26111 1.86574 5.63519C 2.01019 4.25556 9.73241 1.85185 25 1.85185ZM 1.85185 12.0333L 1.85185 8.19907C 2.59167 8.66481 3.5287 9.08981 4.62963 9.47315L 4.62963 13.9065C 2.8287 13.2315 1.8537 12.5546 1.85185 12.0333ZM 6.33704 24.8472C 6.35093 24.862 6.37222 24.875 6.38611 24.8898C 7.6537 26.1694 10.2787 27.175 13.5463 27.925C 13.6213 27.9426 13.7009 27.9593 13.7769 27.9769C 14.0167 28.0306 14.2602 28.0833 14.5065 28.1343C 17.5074 28.7731 21.0898 29.2352 24.9926 29.4639C 24.9954 29.4639 24.9972 29.4648 24.9991 29.4648C 25.0009 29.4648 25.0019 29.4639 25.0028 29.4639C 26.2565 29.537 27.5389 29.588 28.8482 29.6102C 29.4278 29.6222 29.9981 29.6296 30.5556 29.6296C 31.1944 29.6296 31.85 29.6222 32.5167 29.6065C 33.7278 29.5815 34.9213 29.5315 36.0981 29.463C 36.1028 29.463 36.1065 29.4657 36.1111 29.4657C 36.1194 29.4657 36.1259 29.4611 36.1343 29.4611C 40.0472 29.2306 43.7185 28.7639 46.8232 28.0926C 46.1509 28.4444 45.2306 28.8083 44.0843 29.163C 40.6259 30.2315 35.1028 31.2046 28.0833 31.4306C 27.875 31.437 27.6694 31.4444 27.4583 31.45C 27.2315 31.4556 27.0009 31.4593 26.7704 31.4639C 26.188 31.4731 25.6019 31.4815 25 31.4815C 24.1981 31.4815 23.4204 31.4694 22.6537 31.4519C 22.3722 31.4454 22.0944 31.4361 21.8167 31.4269C 21.4769 31.4167 21.1454 31.4018 20.8139 31.388C 14.3176 31.1009 9.19074 30.1741 5.91574 29.162C 3.36944 28.375 1.94444 27.538 1.86204 26.9093C 1.96481 26.5611 2.90093 25.6898 6.33704 24.8472ZM 1.85185 33.3296L 1.85185 29.4954C 2.59167 29.9611 3.5287 30.3861 4.62963 30.7694L 4.62963 35.1852L 4.10093 34.9796L 4.08981 34.9907C 2.63611 34.388 1.8537 33.7963 1.85185 33.3296ZM 4.62963 43.5148L 4.62963 39.6806C 5.36944 40.1463 6.30648 40.5713 7.40741 40.9546L 7.40741 45.388C 5.60648 44.713 4.63148 44.0361 4.62963 43.5148ZM 48.1482 45.388L 48.1482 40.9556C 49.2491 40.5722 50.1861 40.1472 50.9259 39.6815L 50.9259 43.513C 50.925 44.0343 49.9491 44.712 48.1482 45.388ZM 50.9139 37.1083C 50.813 37.7352 49.3907 38.5667 46.862 39.3481C 43.5861 40.3602 38.4602 41.287 31.9639 41.5741C 31.6315 41.588 31.3 41.6019 30.9611 41.613C 30.6843 41.6222 30.4065 41.6306 30.1241 41.638C 29.3574 41.6546 28.5796 41.6667 27.7778 41.6667C 26.9759 41.6667 26.1972 41.6546 25.4296 41.637C 25.1509 41.6306 24.8759 41.6213 24.6009 41.612C 24.2593 41.6009 23.9259 41.587 23.5917 41.5731C 17.0954 41.2861 11.9694 40.3593 8.69352 39.3472C 6.24444 38.5907 4.82963 37.787 4.65185 37.1667C 4.92778 37.263 5.21389 37.3565 5.50741 37.4481C 5.53704 37.4574 5.56667 37.4667 5.5963 37.475C 5.8463 37.5518 6.10185 37.6259 6.36389 37.6981C 6.46296 37.7259 6.56296 37.7537 6.66389 37.7806C 6.81204 37.8204 6.96389 37.8583 7.11574 37.8972C 10.488 38.7611 14.7926 39.3731 19.4398 39.6481C 19.4417 39.6481 19.4426 39.6491 19.4444 39.6491C 19.4454 39.6491 19.4463 39.6481 19.4472 39.6481C 20.8824 39.7333 22.3481 39.7861 23.8296 39.8037C 24.2241 39.8111 24.6157 39.8148 25 39.8148C 25.5102 39.8148 26.0324 39.8083 26.5611 39.7991C 27.912 39.7769 29.2454 39.7268 30.5491 39.6491C 30.5519 39.6491 30.5537 39.6509 30.5565 39.6509C 30.5611 39.6509 30.5639 39.6481 30.5685 39.6481C 32.1565 39.5528 33.6935 39.4167 35.1704 39.2472C 35.1759 39.2472 35.1806 39.25 35.1861 39.25C 35.2065 39.25 35.2231 39.2398 35.2435 39.238C 36.888 39.0481 38.4472 38.8148 39.8944 38.5435C 40.1926 38.4889 40.4861 38.4324 40.7769 38.3741C 40.8417 38.3611 40.9065 38.3481 40.9713 38.3343C 43.7056 37.7731 46.0722 37.0463 47.6963 36.1454C 47.7852 36.0972 47.8685 36.0472 47.9528 35.9981C 48.0556 35.937 48.1537 35.875 48.2491 35.812C 48.338 35.7546 48.4407 35.6991 48.5222 35.6407C 50.35 36.2926 50.8537 36.8759 50.9139 37.1083ZM 50.9259 25.0176L 50.9259 20.5852C 52.0269 20.2019 52.9639 19.7769 53.7037 19.3111L 53.7037 23.1426C 53.7028 23.6639 52.7269 24.3417 50.9259 25.0176Z"/>
</defs>
</svg>
