<svg width="26" height="50" viewBox="0 0 26 50" version="1.1" xmlns="http://www.w3.org/2000/svg" xmlns:xlink="http://www.w3.org/1999/xlink">
<title>flash</title>
<desc>Created using Figma</desc>
<g id="Canvas" transform="translate(-3763 -232)">
<g id="flash">
<g id="Group">
<g id="Group">
<g id="Vector">
<use xlink:href="#path0_fill" transform="translate(3763 232)" fill="#00B0DC"/>
</g>
</g>
</g>
<g id="Group">
<g id="Group">
<g id="Vector">
<use xlink:href="#path1_fill" transform="translate(3775.38 245.466)" fill="#00B0DC"/>
</g>
</g>
</g>
<g id="Group">
<g id="Group">
<g id="Vector">
<use xlink:href="#path2_fill" transform="translate(3776.35 234.908)" fill="#00B0DC"/>
</g>
</g>
</g>
</g>
</g>
<defs>
<path id="path0_fill" d="M 25.6341 20.6833C 25.4625 20.3544 25.1222 20.1483 24.7511 20.1483L 16.1304 20.1483L 21.358 1.26172C 21.441 0.961816 21.3791 0.64043 21.1908 0.392871C 21.0024 0.145312 20.7092 0 20.3981 0L 8.7071 0C 8.25935 0 7.86667 0.298828 7.74724 0.730273L 0.0361068 28.5897C -0.046901 28.8896 0.0150129 29.211 0.203294 29.4586C 0.391673 29.7063 0.68474 29.8516 0.99597 29.8516L 9.61667 29.8516L 4.38913 48.7382C 4.25964 49.2062 4.4862 49.699 4.92556 49.9054C 5.06169 49.9693 5.20593 50 5.34861 50C 5.66599 50 5.97497 49.848 6.16648 49.5731L 25.5686 21.7137C 25.7806 21.4091 25.8057 21.0122 25.6341 20.6833ZM 7.86462 43.6488L 11.8857 29.1213C 11.9687 28.8214 11.9068 28.5 11.7185 28.2524C 11.5301 28.0048 11.2371 27.8595 10.9259 27.8595L 2.30515 27.8595L 9.46492 1.99199L 19.0891 1.99199L 13.8614 20.8786C 13.7784 21.1785 13.8403 21.4999 14.0286 21.7475C 14.2171 21.9951 14.5102 22.1404 14.8213 22.1404L 22.8436 22.1404L 7.86462 43.6488Z"/>
<path id="path1_fill" d="M 1.40307 0.0369192C 0.873574 -0.110932 0.32377 0.19854 0.175919 0.728326L 0.0369533 1.22569C -0.110996 1.75547 0.198575 2.30499 0.72836 2.45284C 0.817911 2.47784 0.908047 2.48975 0.996816 2.48975C 1.43246 2.48975 1.83256 2.20157 1.95561 1.76133L 2.09457 1.26397C 2.24252 0.73438 1.93285 0.184868 1.40307 0.0369192Z"/>
<path id="path2_fill" d="M 3.3783 0.0367832C 2.8489 -0.110678 2.299 0.198404 2.15115 0.728189L 0.0369885 8.29801C -0.111058 8.8278 0.198608 9.37721 0.728393 9.52516C 0.817944 9.55016 0.908083 9.56208 0.996853 9.56208C 1.4325 9.56208 1.83269 9.27389 1.95564 8.83366L 4.0698 1.26383C 4.21775 0.734146 3.90808 0.18483 3.3783 0.0367832Z"/>
</defs>
</svg>
