<svg width="49" height="50" viewBox="0 0 49 50" version="1.1" xmlns="http://www.w3.org/2000/svg" xmlns:xlink="http://www.w3.org/1999/xlink">
<title>strongbox</title>
<desc>Created using Figma</desc>
<g id="Canvas" transform="translate(-3339 -232)">
<g id="strongbox">
<g id="Group">
<g id="Group">
<g id="Vector">
<use xlink:href="#path0_fill" transform="translate(3339 232)" fill="#00B0DC"/>
</g>
</g>
</g>
<g id="Group">
<g id="Group">
<g id="Vector">
<use xlink:href="#path1_fill" transform="translate(3352.79 244.643)" fill="#00B0DC"/>
</g>
</g>
</g>
<g id="Group">
<g id="Group">
<g id="Vector">
<use xlink:href="#path2_fill" transform="translate(3354.76 245.672)" fill="#00B0DC"/>
</g>
</g>
</g>
</g>
</g>
<defs>
<path id="path0_fill" d="M 47.4788 9.76553e-05L 13.1325 9.76553e-05C 12.6464 9.76553e-05 12.2521 0.394235 12.2521 0.88046C 12.2521 1.36659 12.6463 1.76082 13.1325 1.76082L 46.5985 1.76082L 46.5985 44.8918L 3.46774 44.8918L 3.46774 37.497L 5.64516 37.497L 5.64516 41.8341C 5.64516 42.3202 6.0393 42.7144 6.52552 42.7144L 11.598 42.7144C 12.0842 42.7144 12.4784 42.3203 12.4784 41.8341C 12.4784 41.3479 12.0843 40.9537 11.598 40.9537L 7.40579 40.9537L 7.40579 37.497L 8.16555 37.497C 8.65167 37.497 9.04591 37.1029 9.04591 36.6166L 9.04591 27.7565C 9.04591 27.2703 8.65177 26.8761 8.16555 26.8761L 7.40579 26.8761L 7.40579 19.7766L 8.16555 19.7766C 8.65167 19.7766 9.04591 19.3824 9.04591 18.8962L 9.04591 10.0358C 9.04591 9.54971 8.65177 9.15548 8.16555 9.15548L 7.40579 9.15548L 7.40579 5.69877L 42.6604 5.69877L 42.6604 10.4545C 42.6604 10.9406 43.0546 11.3349 43.5408 11.3349C 44.0269 11.3349 44.4212 10.9407 44.4212 10.4545L 44.4212 4.81851C 44.4212 4.33238 44.027 3.93815 43.5408 3.93815L 6.52542 3.93815C 6.0393 3.93815 5.64506 4.33228 5.64506 4.81851L 5.64506 9.15538L 3.46774 9.15538L 3.46774 1.76072L 10.0638 1.76072C 10.5499 1.76072 10.9441 1.36659 10.9441 0.880363C 10.9441 0.394234 10.55 -4.63826e-12 10.0638 -4.63826e-12L 2.58738 -4.63826e-12C 2.10125 -4.63826e-12 1.70701 0.394137 1.70701 0.880363L 1.70701 9.15548L 0.880362 9.15548C 0.394234 9.15548 1.63911e-08 9.54961 1.63911e-08 10.0358L 1.63911e-08 18.8962C 1.63911e-08 19.3823 0.394137 19.7766 0.880362 19.7766L 1.70701 19.7766L 1.70701 26.8761L 0.880362 26.8761C 0.394234 26.8761 1.63911e-08 27.2702 1.63911e-08 27.7565L 1.63911e-08 36.6166C 1.63911e-08 37.1028 0.394137 37.497 0.880362 37.497L 1.70701 37.497L 1.70701 45.7721C 1.70701 46.2582 2.10115 46.6525 2.58738 46.6525L 6.13695 46.6525L 6.13695 49.1196C 6.13695 49.6058 6.53109 50 7.01731 50L 16.2713 50C 16.7575 50 17.1517 49.6059 17.1517 49.1196L 17.1517 46.6525L 32.9146 46.6525L 32.9146 49.1196C 32.9146 49.6058 33.3088 50 33.795 50L 43.049 50C 43.5351 50 43.9294 49.6059 43.9294 49.1196L 43.9294 46.6525L 47.479 46.6525C 47.9652 46.6525 48.3594 46.2583 48.3594 45.7721L 48.3594 0.88046C 48.3591 0.394235 47.9652 9.76553e-05 47.4788 9.76553e-05ZM 1.76073 18.0157L 1.76073 10.9162L 7.28508 10.9162L 7.28508 18.0159L 1.76073 18.0159L 1.76073 18.0157ZM 5.64516 19.7764L 5.64516 26.8759L 3.46774 26.8759L 3.46774 19.7764L 5.64516 19.7764ZM 1.76073 35.7363L 1.76073 28.6367L 7.28508 28.6367L 7.28508 35.7363L 1.76073 35.7363ZM 7.89758 48.239L 7.89758 46.6522L 15.391 46.6522L 15.391 48.239L 7.89758 48.239ZM 42.1686 48.239L 34.6752 48.239L 34.6752 46.6522L 42.1686 46.6522L 42.1686 48.239Z"/>
<path id="path1_fill" d="M 29.7544 4.4107e-07C 29.2683 4.4107e-07 28.874 0.394137 28.874 0.880363L 28.874 28.3107L 0.880362 28.3107C 0.394234 28.3107 -1.90733e-07 28.7048 -1.90733e-07 29.191C -1.90733e-07 29.6772 0.394137 30.0714 0.880362 30.0714L 29.7544 30.0714C 30.2405 30.0714 30.6348 29.6772 30.6348 29.191L 30.6348 0.880363C 30.6347 0.394137 30.2405 4.4107e-07 29.7544 4.4107e-07Z"/>
<path id="path2_fill" d="M 9.64619 4.76832e-07C 4.3273 4.76832e-07 -5.12595e-07 4.3273 -5.12595e-07 9.64619C -5.12595e-07 14.9651 4.3273 19.2924 9.64619 19.2924C 14.9652 19.2923 19.2924 14.965 19.2924 9.64619C 19.2924 4.3273 14.9651 4.76832e-07 9.64619 4.76832e-07ZM 17.4814 8.76583L 14.183 8.76583C 14.0627 8.14465 13.8185 7.56731 13.4759 7.06145L 15.8061 4.7313C 16.7118 5.8641 17.3122 7.25042 17.4814 8.76583ZM 10.5267 1.81102C 12.0421 1.98016 13.4284 2.58064 14.5612 3.48629L 12.231 5.81645C 11.725 5.47387 11.1476 5.22973 10.5267 5.10942L 10.5267 1.81102ZM 8.76603 1.81111L 8.76603 5.10932L 8.76593 5.10932C 8.14494 5.22964 7.56741 5.47377 7.06155 5.81635L 4.7315 3.48629C 5.8642 2.58064 7.25061 1.98025 8.76603 1.81111ZM 3.48649 4.7313L 5.81664 7.06136C 5.47407 7.56741 5.22993 8.14474 5.10962 8.76593L 1.81121 8.76593C 1.98025 7.25042 2.58083 5.8641 3.48649 4.7313ZM 1.81131 10.5264L 5.10952 10.5264L 5.10952 10.5265C 5.22983 11.1474 5.47397 11.725 5.81655 12.2308L 3.48649 14.5609C 2.58083 13.4281 1.98045 12.0418 1.81131 10.5264ZM 8.76593 17.4813C 7.25051 17.3121 5.8643 16.7117 4.7314 15.806L 7.06155 13.4758C 7.5676 13.8184 8.14494 14.0626 8.76593 14.1829L 8.76593 17.4813ZM 6.78509 9.64619C 6.78509 8.06857 8.06857 6.78489 9.64619 6.78489C 11.2238 6.78489 12.5075 8.06848 12.5075 9.64619C 12.5075 11.2239 11.2239 12.5073 9.64619 12.5073C 8.06847 12.5073 6.78509 11.2238 6.78509 9.64619ZM 10.5267 17.4811L 10.5267 14.1829L 10.5266 14.1829C 11.1475 14.0626 11.7251 13.8184 12.2311 13.4758L 14.5613 15.8059C 13.4284 16.7116 12.0421 17.3119 10.5267 17.4811ZM 15.8061 14.5611L 13.4759 12.2309C 13.8185 11.7249 14.0627 11.1475 14.183 10.5266L 17.4814 10.5266C 17.3122 12.042 16.7118 13.4281 15.8061 14.5611Z"/>
</defs>
</svg>
